<svg width="223" height="163" viewBox="0 0 223 163" fill="none" xmlns="http://www.w3.org/2000/svg">
<rect width="223" height="120" rx="6" fill="#C4C4C4"/>
<rect x="7" y="8" width="209" height="104" rx="6" fill="#2E2E2E"/>
<path d="M86.1836 148C104.584 144.8 102.517 128 99.1836 120H129.184C127.184 129.333 126 145.5 138 148C158 152.167 158.667 157.333 161 162H66.1836C65.1836 158.667 67.7836 151.2 86.1836 148Z" fill="#C4C4C4" stroke="#C4C4C4"/>
<path d="M98.4578 50.28V55.12L88.0578 58.92L98.4578 62.72V67.72L82.8178 61.24V56.76L98.4578 50.28ZM103.328 74.6L116.568 39.48H121.688L108.448 74.6H103.328ZM126.552 67.72V62.88L136.952 59.08L126.552 55.28V50.28L142.192 56.76V61.24L126.552 67.72Z" fill="#C4C4C4"/>
</svg>
