<svg width="16" height="10" viewBox="0 0 16 10" fill="none" xmlns="http://www.w3.org/2000/svg"><path d="M9.09091 9L2 1H15L9.09091 9Z" fill="#C4C4C4"/><path d="M9.09091 9L2 1H15L9.09091 9Z" fill="url(#paint0_linear)"/><path d="M9.09091 9L2 1H15L9.09091 9Z" fill="url(#paint1_linear)"/><path d="M9.09091 9L2 1H15L9.09091 9Z" fill="url(#paint2_linear)"/><path d="M9.09091 9L2 1H15L9.09091 9Z" fill="url(#paint3_linear)"/><path d="M9.09091 9L2 1H15L9.09091 9Z" fill="#C4C4C4"/><path d="M9.09091 9L2 1H15L9.09091 9Z" stroke="#C4C4C4"/><defs><linearGradient id="paint0_linear" x1="8.5" y1="1" x2="8.5" y2="9" gradientUnits="userSpaceOnUse"><stop stop-color="white"/><stop offset="1" stop-color="white" stop-opacity="0"/></linearGradient><linearGradient id="paint1_linear" x1="8.5" y1="1" x2="8.5" y2="9" gradientUnits="userSpaceOnUse"><stop stop-color="white"/><stop offset="1" stop-color="white" stop-opacity="0"/></linearGradient><linearGradient id="paint2_linear" x1="8.5" y1="1" x2="8.5" y2="9" gradientUnits="userSpaceOnUse"><stop stop-color="white"/><stop offset="1" stop-color="white" stop-opacity="0"/></linearGradient><linearGradient id="paint3_linear" x1="8.5" y1="1" x2="8.5" y2="9" gradientUnits="userSpaceOnUse"><stop stop-color="white"/><stop offset="1" stop-color="white" stop-opacity="0"/></linearGradient></defs></svg>
